<?xml version="1.0" standalone="no"?>
<!DOCTYPE svg PUBLIC "-//W3C//DTD SVG 20010904//EN"
 "http://www.w3.org/TR/2001/REC-SVG-20010904/DTD/svg10.dtd">
<svg version="1.0" xmlns="http://www.w3.org/2000/svg"
 width="2000.000000pt" height="2000.000000pt" viewBox="0 0 2000.000000 2000.000000"
 preserveAspectRatio="xMidYMid meet">

<g transform="translate(0.000000,2000.000000) scale(0.100000,-0.100000)"
fill="#000000" stroke="none">
<path d="M6755 18285 c-159 -24 -379 -56 -488 -71 l-198 -28 -187 -249 c-103
-137 -196 -261 -207 -276 -178 -241 -310 -419 -318 -429 -7 -9 -6 -11 4 -8 8
3 255 57 549 121 294 64 540 122 546 128 6 7 153 202 327 435 288 384 314 422
289 421 -15 -1 -157 -20 -317 -44z"/>
<path d="M12921 18310 c8 -11 154 -206 324 -433 l310 -414 265 -58 c146 -32
391 -86 545 -120 154 -34 282 -60 283 -59 2 1 -158 218 -355 481 l-358 478
-495 72 c-272 40 -503 72 -514 73 -16 0 -17 -2 -5 -20z"/>
<path d="M5020 17926 c-176 -118 -542 -389 -574 -425 -18 -20 -19 -36 -13
-323 5 -267 21 -535 32 -546 2 -3 44 32 92 76 114 104 274 237 439 364 l131
101 7 171 c8 190 22 390 40 571 7 66 12 121 12 121 -1 1 -75 -48 -166 -110z"/>
<path d="M14824 17978 c18 -150 37 -416 43 -597 l6 -203 85 -67 c199 -155 307
-243 437 -356 75 -66 140 -121 144 -123 10 -3 30 322 38 614 l6 240 -109 84
c-230 178 -628 460 -650 460 -3 0 -3 -24 0 -52z"/>
<path d="M9605 17554 c-22 -2 -105 -9 -185 -15 -562 -41 -1190 -177 -1761
-380 -390 -138 -927 -392 -1229 -581 -14 -8 -74 -46 -135 -83 -661 -408 -1341
-1027 -1826 -1665 -759 -997 -1229 -2135 -1384 -3355 -64 -506 -71 -1090 -19
-1595 110 -1066 463 -2090 1033 -2995 410 -652 961 -1267 1564 -1748 1009
-804 2223 -1313 3497 -1466 333 -40 439 -46 850 -45 407 0 561 9 880 49 1061
136 2095 524 2980 1119 937 630 1689 1447 2239 2435 445 797 735 1729 831
2661 33 325 42 841 20 1155 -88 1275 -495 2449 -1213 3494 -145 211 -373 504
-498 641 -17 19 -75 82 -127 140 -206 226 -514 513 -767 715 -555 442 -1126
776 -1770 1032 -496 199 -994 335 -1525 417 -361 56 -523 68 -985 71 -236 2
-448 1 -470 -1z m685 -74 c343 -16 549 -38 861 -90 1188 -199 2339 -730 3265
-1505 399 -335 788 -745 1101 -1162 1348 -1793 1737 -4133 1041 -6263 -568
-1741 -1816 -3195 -3448 -4019 -808 -408 -1613 -636 -2555 -723 -187 -17 -901
-17 -1095 0 -1349 120 -2516 561 -3578 1351 -1539 1145 -2530 2883 -2736 4796
-53 496 -46 1104 19 1620 324 2547 2103 4744 4540 5607 830 294 1729 429 2585
388z"/>
<path d="M9916 16616 c-159 -59 -214 -254 -109 -391 l34 -45 -28 -34 c-15 -18
-67 -78 -115 -133 -102 -117 -160 -211 -190 -306 -17 -58 -20 -86 -16 -185 6
-131 26 -220 87 -384 82 -216 105 -370 79 -518 l-13 -74 -68 -39 c-89 -52
-221 -177 -277 -265 l-45 -71 -1399 0 -1399 -1 -67 64 c-62 58 -191 136 -226
136 -18 0 -18 0 10 51 96 174 -35 382 -231 367 -139 -10 -232 -108 -233 -244
0 -45 6 -73 25 -110 14 -27 25 -52 25 -55 0 -4 -12 -10 -27 -14 -43 -10 -154
-79 -211 -131 -187 -167 -252 -455 -157 -697 41 -104 154 -238 253 -301 24
-15 42 -30 40 -34 -48 -90 -53 -109 -53 -197 0 -76 4 -98 25 -138 28 -57 105
-131 158 -155 l39 -17 -98 -285 c-120 -350 -399 -1164 -589 -1720 -78 -228
-196 -572 -262 -765 -152 -442 -366 -1068 -426 -1247 l-47 -138 -67 0 -68 0
19 -50 c92 -241 475 -456 1007 -564 767 -156 1556 -59 2014 247 99 66 236 205
288 292 l42 70 -91 5 -91 5 -180 520 c-99 286 -195 563 -214 615 -19 52 -127
363 -240 690 -236 682 -476 1374 -670 1931 -74 213 -134 389 -134 393 0 3 15
12 33 20 93 39 174 155 184 264 5 57 -16 161 -39 189 -6 8 6 19 44 38 63 31
142 91 187 140 l31 35 1395 0 1394 0 37 -57 c20 -32 62 -87 94 -123 57 -65 57
-65 63 -143 10 -137 63 -237 133 -252 16 -4 34 -8 40 -10 20 -6 27 -290 21
-785 -10 -738 -67 -1523 -157 -2150 -41 -279 -45 -296 -89 -347 -88 -99 -117
-207 -108 -401 6 -150 42 -300 107 -457 99 -234 118 -320 106 -479 -23 -335
-150 -686 -458 -1263 -41 -78 -57 -119 -53 -133 6 -20 10 -20 1018 -18 l1012
3 3 21 c2 12 -22 68 -54 125 -396 725 -548 1210 -468 1496 8 28 38 98 67 155
156 305 201 659 107 856 -15 32 -44 76 -64 96 -41 40 -45 57 -86 331 -110 746
-190 2073 -161 2690 6 136 14 251 17 256 3 5 14 9 26 9 78 0 146 117 150 259
l1 66 62 66 c34 37 79 94 100 128 l38 61 1395 0 1395 0 69 -65 c37 -36 93 -79
123 -96 30 -17 55 -33 55 -34 0 -2 -7 -30 -15 -62 -37 -139 34 -292 167 -359
27 -14 46 -29 43 -34 -3 -5 -28 -74 -55 -152 -27 -79 -82 -240 -123 -358 -87
-248 -303 -873 -417 -1200 -43 -124 -117 -337 -165 -475 -102 -295 -216 -624
-390 -1125 -69 -201 -141 -408 -160 -460 -19 -52 -55 -157 -81 -232 l-46 -138
-89 0 c-59 0 -89 -4 -89 -11 0 -29 83 -143 165 -225 175 -177 388 -289 701
-369 228 -59 375 -76 684 -82 376 -7 629 21 943 102 338 87 580 206 734 360
67 67 133 172 133 213 0 8 -20 12 -65 12 -58 0 -66 2 -75 23 -5 12 -45 128
-89 257 -44 129 -278 816 -521 1525 -243 710 -497 1452 -565 1650 -67 198
-148 434 -179 524 -31 90 -56 165 -56 167 0 2 20 13 44 25 60 28 119 88 152
155 36 74 39 175 6 248 -12 27 -19 52 -15 56 5 4 39 30 76 60 155 120 237 292
237 494 0 179 -57 314 -185 443 -62 62 -99 91 -155 118 -41 19 -80 35 -87 35
-17 0 -17 0 11 51 96 174 -35 382 -231 367 -183 -14 -285 -190 -208 -357 14
-30 24 -55 23 -56 -2 -1 -28 -11 -58 -24 -63 -24 -181 -109 -213 -152 l-21
-29 -1403 0 -1404 0 -17 32 c-32 58 -137 182 -194 228 -32 26 -85 62 -118 81
-104 59 -95 38 -95 211 0 174 2 182 95 433 69 187 87 252 95 355 17 196 -37
307 -287 595 l-68 78 27 31 c58 68 77 159 53 247 -13 47 -72 115 -123 141 -53
26 -149 33 -201 14z m4117 -6074 l2 -1952 -692 0 -692 0 15 43 c26 72 406
1163 686 1972 49 143 103 298 120 345 16 47 72 207 123 355 51 149 126 362
165 475 63 182 234 673 256 740 l9 25 3 -25 c1 -14 3 -904 5 -1978z m242 1608
c194 -570 233 -686 363 -1065 176 -513 627 -1833 748 -2185 57 -168 104 -307
104 -310 0 -3 -306 -4 -680 -2 l-680 2 0 1977 c0 1103 4 1973 9 1968 4 -6 66
-179 136 -385z m-8405 -1630 l0 -1980 -677 2 c-445 2 -677 6 -676 13 1 6 54
163 118 350 64 187 177 518 252 735 74 217 163 478 198 580 35 102 115 338
179 525 344 1007 601 1755 604 1755 1 0 2 -891 2 -1980z m245 1589 c70 -200
164 -472 210 -604 46 -132 158 -456 250 -720 91 -264 185 -536 210 -605 56
-162 112 -323 168 -485 25 -71 124 -358 221 -637 97 -279 176 -510 176 -513 0
-3 -310 -5 -690 -5 l-690 0 0 1983 c0 1229 4 1976 10 1966 5 -9 66 -180 135
-380z"/>
<path d="M8960 6310 l0 -290 1040 0 1040 0 0 290 0 290 -1040 0 -1040 0 0
-290z"/>
<path d="M8380 5570 l0 -290 1620 0 1620 0 0 290 0 290 -1620 0 -1620 0 0
-290z"/>
<path d="M7532 4848 l3 -293 2468 -3 2467 -2 0 295 0 295 -2470 0 -2470 0 2
-292z"/>
<path d="M5130 16983 c-187 -147 -291 -232 -423 -347 -109 -96 -134 -122 -120
-128 10 -3 113 -27 228 -52 116 -25 289 -67 385 -94 l175 -49 70 55 c162 126
414 307 518 371 20 12 37 25 37 27 0 17 -741 286 -780 284 -3 -1 -43 -31 -90
-67z"/>
<path d="M14655 17010 c-146 -46 -364 -124 -505 -180 -58 -23 -116 -46 -129
-51 -22 -9 -16 -15 89 -85 123 -82 285 -200 427 -310 l92 -71 83 24 c148 43
379 100 538 133 85 17 162 34 170 36 11 4 -6 25 -55 70 -135 123 -568 475
-585 473 -3 0 -59 -17 -125 -39z"/>
<path d="M3665 16796 c-234 -244 -381 -410 -533 -598 l-62 -76 15 -73 c25
-117 93 -383 135 -529 61 -207 66 -221 74 -221 4 0 53 62 108 138 82 113 223
291 396 503 l24 29 -36 203 c-45 254 -61 361 -76 513 -7 66 -16 123 -19 126
-3 3 -15 -3 -26 -15z"/>
<path d="M16305 16765 c-17 -162 -60 -449 -90 -615 -38 -202 -39 -181 19 -245
48 -53 293 -364 376 -478 51 -70 96 -130 100 -132 14 -9 195 653 215 788 l7
45 -126 150 c-138 165 -275 319 -407 457 l-87 90 -7 -60z"/>
<path d="M3848 15757 c-117 -140 -241 -299 -346 -443 l-80 -111 371 -6 c205
-4 392 -9 417 -12 l45 -5 104 128 c57 70 171 200 253 290 83 90 149 164 147
166 -14 11 -450 69 -766 101 l-51 5 -94 -113z"/>
<path d="M15990 15863 c-425 -47 -691 -82 -739 -99 -8 -2 28 -47 100 -122 106
-110 292 -323 368 -420 l34 -44 61 8 c34 4 220 10 414 13 l353 6 -110 150
c-140 190 -182 243 -300 385 -105 126 -109 130 -131 128 -8 -1 -31 -3 -50 -5z"/>
<path d="M2466 15262 c-71 -114 -255 -441 -334 -594 l-86 -167 13 -38 c33 -91
366 -733 381 -733 3 0 37 73 75 163 38 89 120 264 182 389 l114 227 -44 103
c-69 159 -191 472 -227 583 -18 55 -35 103 -39 107 -3 3 -19 -15 -35 -40z"/>
<path d="M17466 15197 c-46 -134 -190 -501 -239 -609 l-35 -77 112 -223 c61
-123 136 -279 165 -348 30 -69 62 -145 73 -169 17 -41 20 -43 32 -25 47 67
293 538 361 690 l27 62 -62 118 c-110 210 -140 265 -252 459 -155 270 -136
257 -182 122z"/>
<path d="M3615 14503 c-219 -17 -313 -25 -385 -34 -160 -18 -255 -31 -271 -35
-28 -8 -381 -745 -365 -761 2 -2 33 3 68 11 196 48 490 107 704 142 30 4 39
17 137 202 57 108 143 261 189 340 l86 142 -62 -2 c-33 -1 -79 -3 -101 -5z"/>
<path d="M16232 14504 c3 -5 50 -85 105 -179 55 -93 137 -242 183 -330 46 -88
84 -161 85 -162 0 -1 82 -16 181 -33 98 -17 269 -51 379 -76 110 -25 212 -47
227 -51 27 -5 27 -5 -46 163 -83 192 -262 556 -287 583 -13 14 -56 22 -200 39
-335 40 -636 61 -627 46z"/>
<path d="M1650 13554 c-36 -92 -160 -498 -206 -669 -47 -178 -51 -202 -39
-221 52 -79 455 -564 519 -623 l26 -24 0 21 c0 38 97 478 145 655 l45 168 -84
117 c-96 134 -318 471 -364 551 l-31 55 -11 -30z"/>
<path d="M18290 13493 c-65 -109 -270 -416 -356 -535 -35 -49 -64 -95 -64
-102 0 -8 20 -90 45 -183 25 -92 68 -276 96 -408 27 -132 51 -241 53 -242 4
-5 283 322 413 484 108 135 134 173 130 193 -10 62 -93 362 -148 535 -88 279
-91 288 -104 318 l-11 28 -54 -88z"/>
<path d="M2920 13029 c-174 -50 -520 -165 -585 -194 l-50 -22 -42 -164 c-59
-227 -143 -609 -143 -648 0 -6 54 16 120 49 123 62 601 270 620 270 15 0 25
28 69 195 35 132 145 489 166 538 10 23 4 22 -155 -24z"/>
<path d="M16988 12878 c34 -106 84 -273 110 -371 l47 -179 130 -52 c163 -66
388 -165 525 -233 58 -28 106 -50 107 -50 4 5 -91 446 -117 547 -17 63 -40
152 -52 198 l-22 82 -56 21 c-167 63 -695 229 -727 229 -4 0 20 -87 55 -192z"/>
<path d="M1210 11687 c0 -8 -9 -94 -19 -193 -21 -197 -45 -613 -40 -684 4 -43
8 -48 104 -128 164 -138 487 -382 560 -424 7 -4 11 110 11 346 1 194 4 388 8
432 l6 79 -72 60 c-107 90 -226 201 -396 372 -84 84 -154 153 -157 153 -3 0
-5 -6 -5 -13z"/>
<path d="M18585 11501 c-110 -108 -247 -239 -305 -290 l-105 -92 0 -435 c0
-239 1 -434 3 -434 16 0 353 253 531 398 132 108 151 127 151 153 0 147 -59
881 -72 894 -2 2 -93 -85 -203 -194z"/>
<path d="M2620 11474 c-179 -97 -340 -191 -481 -281 l-147 -93 -7 -153 c-8
-176 -3 -672 7 -682 3 -4 64 40 135 96 125 100 390 294 485 354 l48 30 0 75
c0 116 18 390 36 548 9 79 14 145 12 147 -2 2 -42 -16 -88 -41z"/>
<path d="M17294 11488 c14 -84 36 -333 47 -530 l12 -217 56 -37 c124 -82 324
-228 456 -333 77 -61 143 -111 146 -111 13 0 18 318 9 570 -5 146 -9 266 -10
267 -1 6 -189 128 -288 187 -111 65 -421 236 -429 236 -2 0 -2 -15 1 -32z"/>
<path d="M2609 9858 c-89 -74 -229 -202 -403 -370 l-130 -124 37 -200 c32
-168 107 -508 135 -607 7 -28 10 -26 113 100 58 70 164 193 235 272 71 80 146
164 168 188 l38 44 -31 172 c-17 95 -42 264 -57 377 -14 113 -27 206 -28 208
-2 1 -36 -26 -77 -60z"/>
<path d="M17310 9880 c0 -54 -53 -421 -85 -590 l-25 -134 63 -66 c114 -117
364 -406 442 -508 25 -34 41 -48 46 -40 13 25 102 416 139 613 l39 200 -191
187 c-169 166 -405 378 -422 378 -3 0 -6 -18 -6 -40z"/>
<path d="M1190 9747 c0 -97 117 -858 137 -890 13 -21 670 -333 761 -361 20 -7
21 -5 13 16 -18 49 -96 393 -135 603 l-42 220 -69 39 c-213 120 -595 353 -652
399 -10 7 -13 1 -13 -26z"/>
<path d="M18720 9719 c-88 -62 -334 -211 -525 -319 -60 -34 -111 -63 -112 -64
-2 -2 -19 -90 -39 -197 -29 -158 -112 -529 -140 -626 -3 -13 -4 -23 -2 -23 28
0 705 316 766 358 17 12 73 321 111 613 41 315 42 319 33 318 -4 -1 -45 -28
-92 -60z"/>
<path d="M2925 8249 c-144 -200 -194 -272 -291 -422 l-96 -148 37 -92 c51
-128 204 -462 266 -581 l51 -98 104 202 c58 112 147 276 199 365 l95 163 -34
79 c-53 120 -170 426 -207 541 -18 56 -36 102 -39 102 -3 0 -41 -50 -85 -111z"/>
<path d="M16971 8303 c-11 -32 -30 -87 -42 -123 -23 -72 -153 -403 -192 -490
l-24 -54 52 -86 c82 -135 196 -343 275 -500 l73 -145 103 210 c57 116 135 288
175 383 66 157 71 175 60 199 -30 65 -389 588 -451 656 -4 5 -17 -18 -29 -50z"/>
<path d="M1580 7890 c0 -19 133 -389 200 -555 85 -213 124 -300 139 -310 20
-12 250 -72 416 -109 159 -35 415 -85 415 -81 0 1 -45 94 -99 206 -98 203
-217 470 -240 541 -12 35 -16 39 -84 58 -137 40 -463 149 -605 203 -78 30
-142 51 -142 47z"/>
<path d="M18375 7878 c-113 -46 -440 -159 -590 -204 -88 -26 -165 -52 -172
-58 -6 -6 -23 -42 -39 -81 -48 -122 -199 -457 -262 -580 -34 -66 -60 -120 -59
-121 10 -7 466 91 667 143 l176 45 21 51 c112 270 194 482 248 640 35 103 63
187 62 186 -1 0 -24 -9 -52 -21z"/>
<path d="M3615 6798 c-54 -117 -131 -306 -211 -517 l-55 -144 56 -81 c142
-208 450 -607 458 -595 1 2 19 72 40 154 32 132 124 445 173 592 l17 51 -95
134 c-80 113 -221 328 -307 471 -12 20 -24 37 -25 37 -2 0 -25 -46 -51 -102z"/>
<path d="M16286 6817 c-50 -84 -264 -407 -336 -507 l-39 -55 35 -105 c40 -118
152 -506 179 -619 l18 -75 29 35 c130 152 466 605 475 639 5 18 -58 191 -156
428 -69 168 -147 342 -153 342 -2 0 -25 -37 -52 -83z"/>
<path d="M2370 6131 c0 -20 279 -452 426 -657 l79 -111 59 -7 c73 -8 769 -8
789 0 11 4 -11 38 -87 132 -98 122 -237 307 -321 426 -22 32 -52 74 -67 95
l-28 38 -97 7 c-155 11 -466 45 -611 66 -156 23 -142 22 -142 11z"/>
<path d="M17515 6124 c-107 -18 -395 -50 -582 -65 l-151 -12 -113 -160 c-62
-88 -177 -242 -255 -341 -78 -99 -140 -184 -138 -188 6 -9 725 -11 802 -2 l52
7 125 178 c69 98 142 205 163 238 20 33 69 111 108 173 39 62 81 130 93 151
l23 37 -24 -1 c-13 -1 -59 -8 -103 -15z"/>
<path d="M4572 5404 c-23 -119 -54 -302 -69 -405 l-27 -190 40 -40 c94 -98
583 -509 606 -509 4 0 8 62 8 138 0 149 14 385 34 572 l13 115 -41 35 c-77 65
-211 194 -363 347 -84 84 -154 153 -155 153 -2 0 -23 -97 -46 -216z"/>
<path d="M15185 5421 c-110 -108 -235 -229 -278 -268 l-79 -70 16 -144 c8 -79
20 -259 26 -399 6 -140 12 -261 13 -269 3 -23 382 285 584 475 l62 59 -25 180
c-21 156 -108 622 -117 631 -1 2 -92 -86 -202 -195z"/>
<path d="M4180 4664 c-126 -19 -347 -42 -637 -66 -31 -3 -29 -6 135 -174 275
-281 489 -474 525 -474 70 0 631 121 794 171 l33 10 -118 93 c-142 111 -395
327 -477 407 -35 35 -68 58 -80 58 -11 -1 -90 -12 -175 -25z"/>
<path d="M15551 4617 c-93 -90 -332 -295 -469 -402 -56 -43 -99 -82 -94 -86
21 -19 656 -160 787 -175 l50 -5 110 97 c61 54 211 199 335 323 l225 225 -85
8 c-47 4 -164 15 -260 23 -96 9 -249 27 -340 41 -91 13 -169 24 -174 24 -4 0
-43 -33 -85 -73z"/>
<path d="M5820 4528 c1 -170 38 -759 49 -776 17 -27 726 -400 738 -388 3 3
-11 96 -31 208 -37 211 -70 425 -81 539 l-7 67 -122 68 c-133 74 -409 244
-485 299 -27 19 -51 35 -55 35 -3 0 -6 -24 -6 -52z"/>
<path d="M14120 4542 c-103 -70 -344 -220 -465 -287 -66 -37 -126 -71 -132
-77 -7 -6 -13 -27 -13 -47 0 -50 -52 -401 -89 -601 -17 -90 -28 -166 -26 -168
11 -12 700 349 737 386 17 17 63 832 47 832 -2 0 -29 -17 -59 -38z"/>
<path d="M6877 3598 c29 -244 53 -456 53 -471 0 -27 -9 -33 -172 -111 -95 -46
-265 -128 -378 -183 -113 -55 -238 -114 -278 -133 -40 -18 -71 -38 -69 -43 4
-13 335 -180 512 -258 2031 -899 4667 -972 6590 -184 265 108 623 292 799 411
l50 33 -190 92 c-104 50 -259 125 -344 166 -85 42 -206 99 -267 129 -83 39
-113 58 -113 71 0 10 25 221 54 468 30 248 53 451 52 453 -2 1 -95 -42 -207
-97 -676 -328 -1384 -516 -2259 -598 -264 -25 -1045 -25 -1310 0 -954 89
-1748 292 -2398 612 -96 47 -175 85 -176 85 -1 0 22 -199 51 -442z"/>
<path d="M5685 3578 c-116 -45 -536 -188 -643 -218 l-73 -21 38 -28 c74 -53
425 -272 561 -350 218 -124 191 -116 270 -85 105 42 402 179 566 261 l149 75
-183 90 c-151 74 -412 214 -555 298 -30 17 -31 17 -130 -22z"/>
<path d="M14060 3529 c-85 -50 -255 -140 -377 -202 -123 -62 -223 -115 -223
-118 0 -12 598 -293 731 -343 l46 -18 149 84 c267 151 650 396 637 408 -4 4
-37 15 -73 25 -120 32 -367 115 -537 179 -92 35 -175 66 -183 69 -8 3 -85 -35
-170 -84z"/>
</g>
</svg>
