<svg viewBox="0 0 520 200" xmlns="http://www.w3.org/2000/svg" role="img" aria-labelledby="title desc" preserveAspectRatio="xMinYMid meet">
  <title id="title">De Jure Advocates &amp; Legal Consultants — Navbar (Monogram)</title>
  <desc id="desc">Navbar-optimized wordmark with monogram inside the seal circle.</desc>
  <defs>
    <filter id="logo-shadow" x="-20%" y="-20%" width="140%" height="140%">
      <feDropShadow dx="0" dy="6" stdDeviation="10" flood-color="#000" flood-opacity="0.18" />
    </filter>
    <clipPath id="seal-clip">
      <circle cx="85" cy="85" r="65" />
    </clipPath>
  </defs>

  <g filter="url(#logo-shadow)">
    <!-- Outer seal with maroon fill and black stroke -->
    <circle cx="85" cy="85" r="65" fill="#550909" stroke="#000000" stroke-width="4" />
    <!-- Soft inner rings for subtle depth (now white for contrast) -->
    <circle cx="85" cy="85" r="55" fill="none" stroke="#ffffff" stroke-opacity="1" stroke-width="1.5" />
    <circle cx="85" cy="85" r="45" fill="none" stroke="#ffffff" stroke-opacity="0.45" stroke-width="1.25" />
    <!-- Embedded monogram SVG precisely clipped and centered in the seal circle -->
    <g clip-path="url(#seal-clip)">
      <svg x="30" y="30" width="110" height="110" viewBox="0 0 2000 2000" preserveAspectRatio="xMidYMid meet">
        <g transform="translate(0,2000) scale(0.1,-0.1)" fill="#000000" stroke="none">
          <path d="M9605 17554 c-22 -2 -105 -9 -185 -15 -562 -41 -1190 -177 -1761 -380 -390 -138 -927 -392 -1229 -581 -14 -8 -74 -46 -135 -83 -661 -408 -1341 -1027 -1826 -1665 -759 -997 -1229 -2135 -1384 -3355 -64 -506 -71 -1090 -19 -1595 110 -1066 463 -2090 1033 -2995 410 -652 961 -1267 1564 -1748 1009 -804 2223 -1313 3497 -1466 333 -40 439 -46 850 -45 407 0 561 9 880 49 1061 136 2095 524 2980 1119 937 630 1689 1447 2239 2435 445 797 735 1729 831 2661 33 325 42 841 20 1155 -88 1275 -495 2449 -1213 3494 -145 211 -373 504 -498 641 -17 19 -75 82 -127 140 -206 226 -514 513 -767 715 -555 442 -1126 776 -1770 1032 -496 199 -994 335 -1525 417 -361 56 -523 68 -985 71 -236 2 -448 1 -470 -1z m685 -74 c343 -16 549 -38 861 -90 1188 -199 2339 -730 3265 -1505 399 -335 788 -745 1101 -1162 1348 -1793 1737 -4133 1041 -6263 -568 -1741 -1816 -3195 -3448 -4019 -808 -408 -1613 -636 -2555 -723 -187 -17 -901 -17 -1095 0 -1349 120 -2516 561 -3578 1351 -1539 1145 -2530 2883 -2736 4796 -53 496 -46 1104 19 1620 324 2547 2103 4744 4540 5607 830 294 1729 429 2585 388z"/>
          <path d="M9916 16616 c-159 -59 -214 -254 -109 -391 l34 -45 -28 -34 c-15 -18 -67 -78 -115 -133 -102 -117 -160 -211 -190 -306 -17 -58 -20 -86 -16 -185 6 -131 26 -220 87 -384 82 -216 105 -370 79 -518 l-13 -74 -68 -39 c-89 -52 -221 -177 -277 -265 l-45 -71 -1399 0 -1399 -1 -67 64 c-62 58 -191 136 -226 136 -18 0 -18 0 10 51 96 174 -35 382 -231 367 -139 -10 -232 -108 -233 -244 0 -45 6 -73 25 -110 14 -27 25 -52 25 -55 0 -4 -12 -10 -27 -14 -43 -10 -154 -79 -211 -131 -187 -167 -252 -455 -157 -697 41 -104 154 -238 253 -301 24 -15 42 -30 40 -34 -48 -90 -53 -109 -53 -197 0 -76 4 -98 25 -138 28 -57 105 -131 158 -155 l39 -17 -98 -285 c-120 -350 -399 -1164 -589 -1720 -78 -228 -196 -572 -262 -765 -152 -442 -366 -1068 -426 -1247 l-47 -138 -67 0 -68 0 19 -50 c92 -241 475 -456 1007 -564 767 -156 1556 -59 2014 247 99 66 236 205 288 292 l42 70 -91 5 -91 5 -180 520 c-99 286 -195 563 -214 615 -19 52 -127 363 -240 690 -236 682 -476 1374 -670 1931 -74 213 -134 389 -134 393 0 3 15 12 33 20 93 39 174 155 184 264 5 57 -16 161 -39 189 -6 8 6 19 44 38 63 31 142 91 187 140 l31 35 1395 0 1394 0 37 -57 c20 -32 62 -87 94 -123 57 -65 57 -65 63 -143 10 -137 63 -237 133 -252 16 -4 34 -8 40 -10 20 -6 27 -290 21 -785 -10 -738 -67 -1523 -157 -2150 -41 -279 -45 -296 -89 -347 -88 -99 -117 -207 -108 -401 6 -150 42 -300 107 -457 99 -234 118 -320 106 -479 -23 -335 -150 -686 -458 -1263 -41 -78 -57 -119 -53 -133 6 -20 10 -20 1018 -18 l1012 3 3 21 c2 12 -22 68 -54 125 -396 725 -548 1210 -468 1496 8 28 38 98 67 155 156 305 201 659 107 856 -15 32 -44 76 -64 96 -41 40 -45 57 -86 331 -110 746 -190 2073 -161 2690 6 136 14 251 17 256 3 5 14 9 26 9 78 0 146 117 150 259 l1 66 62 66 c34 37 79 94 100 128 l38 61 1395 0 1395 0 69 -65 c37 -36 93 -79 123 -96 30 -17 55 -33 55 -34 0 -2 -7 -30 -15 -62 -37 -139 34 -292 167 -359 27 -14 46 -29 43 -34 -3 -5 -28 -74 -55 -152 -27 -79 -82 -240 -123 -358 -87 -248 -303 -873 -417 -1200 -43 -124 -117 -337 -165 -475 -102 -295 -216 -624 -390 -1125 -69 -201 -141 -408 -160 -460 -19 -52 -55 -157 -81 -232 l-46 -138 -89 0 c-59 0 -89 -4 -89 -11 0 -29 83 -143 165 -225 175 -177 388 -289 701 -369 228 -59 375 -76 684 -82 376 -7 629 21 943 102 338 87 580 206 734 360 67 67 133 172 133 213 0 8 -20 12 -65 12 -58 0 -66 2 -75 23 -5 12 -45 128 -89 257 -44 129 -278 816 -521 1525 -243 710 -497 1452 -565 1650 -67 198 -148 434 -179 524 -31 90 -56 165 -56 167 0 2 20 13 44 25 60 28 119 88 152 155 36 74 39 175 6 248 -12 27 -19 52 -15 56 5 4 39 30 76 60 155 120 237 292 237 494 0 179 -57 314 -185 443 -62 62 -99 91 -155 118 -41 19 -80 35 -87 35 -17 0 -17 0 11 51 96 174 -35 382 -231 367 -183 -14 -285 -190 -208 -357 14 -30 24 -55 23 -56 -2 -1 -28 -11 -58 -24 -63 -24 -181 -109 -213 -152 l-21 -29 -1403 0 -1404 0 -17 32 c-32 58 -137 182 -194 228 -32 26 -85 62 -118 81 -104 59 -95 38 -95 211 0 174 2 182 95 433 69 187 87 252 95 355 17 196 -37 307 -287 595 l-68 78 27 31 c58 68 77 159 53 247 -13 47 -72 115 -123 141 -53 26 -149 33 -201 14z"/>
          <path d="M8960 6310 l0 -290 1040 0 1040 0 0 290 0 290 -1040 0 -1040 0 0 -290z"/>
          <path d="M8380 5570 l0 -290 1620 0 1620 0 0 290 0 290 -1620 0 -1620 0 0 -290z"/>
          <path d="M7532 4848 l3 -293 2468 -3 2467 -2 0 295 0 295 -2470 0 -2470 0 2 -292z"/>
        </g>
      </svg>
    </g>
  </g>

  <!-- Wordmark -->
  <text x="175" y="75" font-family="'Libre Baskerville', 'Georgia', serif" font-size="68" font-weight="700">
    <tspan fill="#dcd7cf" font-style="italic" font-weight="400">De</tspan>
    <tspan dx="8" fill="#000000">Jure</tspan>
  </text>

  <!-- Separator line -->
  <line x1="175" y1="100" x2="420" y2="100" stroke="#c2b697" stroke-width="1.5" opacity="0.95" />

  <!-- Practice line -->
  <text font-family="'Montserrat', 'Open Sans', sans-serif" font-size="17" fill="#ffffff" letter-spacing="2.3" font-weight="500">
    <tspan x="175" y="120">ADVOCATES &amp; LEGAL</tspan>
    <tspan x="175" y="140">CONSULTANTS</tspan>
  </text>
</svg>
